<?xml version="1.0" encoding="utf-8"?>
<!-- Generator: Adobe Illustrator 15.1.0, SVG Export Plug-In . SVG Version: 6.00 Build 0)  -->
<!DOCTYPE svg PUBLIC "-//W3C//DTD SVG 1.1//EN" "http://www.w3.org/Graphics/SVG/1.1/DTD/svg11.dtd">
<svg version="1.1" id="Layer_1" xmlns="http://www.w3.org/2000/svg" xmlns:xlink="http://www.w3.org/1999/xlink" x="0px" y="0px"
	 width="612px" height="792px" viewBox="0 0 612 792" enable-background="new 0 0 612 792" xml:space="preserve">
<rect fill="none" width="612" height="792"/>
<image overflow="visible" width="500" height="500" xlink:href="343F77D5.jpg"  transform="matrix(0.36 0 0 0.36 -7886 -7796)">
</image>
<circle fill="#A7A9AC" cx="521.333" cy="129.653" r="67.5"/>
<circle fill="#A7A9AC" cx="377.333" cy="129.653" r="67.5"/>
<circle fill="#A7A9AC" cx="233.333" cy="129.653" r="67.5"/>
<circle fill="#A7A9AC" cx="89.333" cy="129.653" r="67.5"/>
<circle fill="#A7A9AC" cx="521.333" cy="273.653" r="67.5"/>
<circle fill="#A7A9AC" cx="377.333" cy="273.653" r="67.5"/>
<circle fill="#A7A9AC" cx="233.333" cy="273.653" r="67.5"/>
<circle fill="#A7A9AC" cx="89.333" cy="273.653" r="67.5"/>
<circle fill="#A7A9AC" cx="521.333" cy="417.652" r="67.5"/>
<circle fill="#A7A9AC" cx="377.333" cy="417.652" r="67.5"/>
<circle fill="#A7A9AC" cx="233.333" cy="417.652" r="67.5"/>
<circle fill="#A7A9AC" cx="89.333" cy="417.652" r="67.5"/>
<circle fill="#A7A9AC" cx="521.333" cy="561.652" r="67.5"/>
<circle fill="#A7A9AC" cx="377.333" cy="561.652" r="67.5"/>
<circle fill="#A7A9AC" cx="233.333" cy="561.652" r="67.5"/>
<circle fill="#A7A9AC" cx="89.333" cy="561.652" r="67.5"/>
<circle fill="#A7A9AC" cx="521.333" cy="705.652" r="67.5"/>
<circle fill="#A7A9AC" cx="377.333" cy="705.652" r="67.5"/>
<circle fill="#A7A9AC" cx="233.333" cy="705.652" r="67.5"/>
<circle fill="#A7A9AC" cx="89.333" cy="705.652" r="67.5"/>
</svg>
