<?xml version="1.0" encoding="utf-8"?>
<!-- Generator: Adobe Illustrator 27.3.1, SVG Export Plug-In . SVG Version: 6.00 Build 0)  -->
<svg version="1.1" id="Layer_1" xmlns="http://www.w3.org/2000/svg" xmlns:xlink="http://www.w3.org/1999/xlink" x="0px" y="0px"
	 viewBox="0 0 612 792" enable-background="new 0 0 612 792" xml:space="preserve">
<path fill="none" stroke="#000000" stroke-miterlimit="10" d="M205.962,254.971c1.068-2.81,0.518-5.981-1.372-8.318l-31.912-39.467
	c9.839-3.23,17.091-7.912,19.423-14.049c0.863-2.273,0.419-4.837-1.11-6.727l-27.409-33.899c7.829-2.513,13.613-6.191,15.454-11.034
	c0.671-1.766,0.325-3.758-0.862-5.227L133.5,81l-44.672,55.249c-1.188,1.469-1.533,3.462-0.862,5.227
	c1.84,4.844,7.625,8.521,15.454,11.034L76.01,186.409c-1.529,1.89-1.973,4.455-1.11,6.727c2.332,6.137,9.584,10.819,19.423,14.049
	l-31.912,39.467c-1.89,2.338-2.44,5.508-1.372,8.318C73.213,287.01,193.788,287.01,205.962,254.971z"/>
<path fill="none" stroke="#000000" stroke-miterlimit="10" d="M385.962,254.971c1.068-2.81,0.518-5.981-1.372-8.318l-31.912-39.467
	c9.839-3.23,17.091-7.912,19.423-14.049c0.863-2.273,0.419-4.837-1.11-6.727l-27.409-33.899c7.829-2.513,13.614-6.191,15.454-11.034
	c0.671-1.766,0.325-3.758-0.862-5.227L313.5,81l-44.672,55.249c-1.188,1.469-1.533,3.462-0.862,5.227
	c1.84,4.844,7.625,8.521,15.454,11.034l-27.409,33.899c-1.529,1.89-1.973,4.455-1.11,6.727c2.332,6.137,9.584,10.819,19.423,14.049
	l-31.912,39.467c-1.89,2.338-2.44,5.508-1.372,8.318C253.213,287.01,373.788,287.01,385.962,254.971z"/>
<path fill="none" stroke="#000000" stroke-miterlimit="10" d="M565.962,254.971c1.068-2.81,0.518-5.981-1.372-8.318l-31.912-39.467
	c9.839-3.23,17.091-7.912,19.423-14.049c0.863-2.273,0.419-4.837-1.11-6.727l-27.409-33.899c7.829-2.513,13.614-6.191,15.454-11.034
	c0.671-1.766,0.325-3.758-0.862-5.227L493.5,81l-44.672,55.249c-1.188,1.469-1.533,3.462-0.862,5.227
	c1.84,4.844,7.625,8.521,15.454,11.034l-27.409,33.899c-1.529,1.89-1.973,4.455-1.11,6.727c2.332,6.137,9.584,10.819,19.423,14.049
	l-31.912,39.467c-1.89,2.338-2.44,5.508-1.372,8.318C433.213,287.01,553.788,287.01,565.962,254.971z"/>
<path fill="none" stroke="#000000" stroke-miterlimit="10" d="M205.962,470.971c1.068-2.81,0.518-5.981-1.372-8.318l-31.912-39.467
	c9.839-3.23,17.091-7.912,19.423-14.049c0.863-2.272,0.419-4.837-1.11-6.727l-27.409-33.899c7.829-2.513,13.613-6.191,15.454-11.034
	c0.671-1.766,0.325-3.758-0.862-5.227L133.5,297l-44.672,55.249c-1.188,1.469-1.533,3.462-0.862,5.227
	c1.84,4.844,7.625,8.521,15.454,11.034L76.01,402.409c-1.529,1.89-1.973,4.455-1.11,6.727c2.332,6.137,9.584,10.819,19.423,14.049
	l-31.912,39.467c-1.89,2.338-2.44,5.508-1.372,8.318C73.213,503.01,193.788,503.01,205.962,470.971z"/>
<path fill="none" stroke="#000000" stroke-miterlimit="10" d="M385.962,470.971c1.068-2.81,0.518-5.981-1.372-8.318l-31.912-39.467
	c9.839-3.23,17.091-7.912,19.423-14.049c0.863-2.272,0.419-4.837-1.11-6.727l-27.409-33.899c7.829-2.513,13.614-6.191,15.454-11.034
	c0.671-1.766,0.325-3.758-0.862-5.227L313.5,297l-44.672,55.249c-1.188,1.469-1.533,3.462-0.862,5.227
	c1.84,4.844,7.625,8.521,15.454,11.034l-27.409,33.899c-1.529,1.89-1.973,4.455-1.11,6.727c2.332,6.137,9.584,10.819,19.423,14.049
	l-31.912,39.467c-1.89,2.338-2.44,5.508-1.372,8.318C253.213,503.01,373.788,503.01,385.962,470.971z"/>
<path fill="none" stroke="#000000" stroke-miterlimit="10" d="M565.962,470.971c1.068-2.81,0.518-5.981-1.372-8.318l-31.912-39.467
	c9.839-3.23,17.091-7.912,19.423-14.049c0.863-2.272,0.419-4.837-1.11-6.727l-27.409-33.899c7.829-2.513,13.614-6.191,15.454-11.034
	c0.671-1.766,0.325-3.758-0.862-5.227L493.5,297l-44.672,55.249c-1.188,1.469-1.533,3.462-0.862,5.227
	c1.84,4.844,7.625,8.521,15.454,11.034l-27.409,33.899c-1.529,1.89-1.973,4.455-1.11,6.727c2.332,6.137,9.584,10.819,19.423,14.049
	l-31.912,39.467c-1.89,2.338-2.44,5.508-1.372,8.318C433.213,503.01,553.788,503.01,565.962,470.971z"/>
<path fill="none" stroke="#000000" stroke-miterlimit="10" d="M205.962,686.971c1.068-2.81,0.518-5.981-1.372-8.318l-31.912-39.467
	c9.839-3.23,17.091-7.912,19.423-14.049c0.863-2.273,0.419-4.837-1.11-6.727l-27.409-33.899c7.829-2.513,13.613-6.191,15.454-11.034
	c0.671-1.766,0.325-3.758-0.862-5.227L133.5,513l-44.672,55.249c-1.188,1.469-1.533,3.461-0.862,5.227
	c1.84,4.844,7.625,8.521,15.454,11.034L76.01,618.409c-1.529,1.89-1.973,4.455-1.11,6.727c2.332,6.137,9.584,10.819,19.423,14.049
	l-31.912,39.467c-1.89,2.338-2.44,5.508-1.372,8.318C73.213,719.01,193.788,719.01,205.962,686.971z"/>
<path fill="none" stroke="#000000" stroke-miterlimit="10" d="M385.962,686.971c1.068-2.81,0.518-5.981-1.372-8.318l-31.912-39.467
	c9.839-3.23,17.091-7.912,19.423-14.049c0.863-2.273,0.419-4.837-1.11-6.727l-27.409-33.899c7.829-2.513,13.614-6.191,15.454-11.034
	c0.671-1.766,0.325-3.758-0.862-5.227L313.5,513l-44.672,55.249c-1.188,1.469-1.533,3.461-0.862,5.227
	c1.84,4.844,7.625,8.521,15.454,11.034l-27.409,33.899c-1.529,1.89-1.973,4.455-1.11,6.727c2.332,6.137,9.584,10.819,19.423,14.049
	l-31.912,39.467c-1.89,2.338-2.44,5.508-1.372,8.318C253.213,719.01,373.788,719.01,385.962,686.971z"/>
<path fill="none" stroke="#000000" stroke-miterlimit="10" d="M565.962,686.971c1.068-2.81,0.518-5.981-1.372-8.318l-31.912-39.467
	c9.839-3.23,17.091-7.912,19.423-14.049c0.863-2.273,0.419-4.837-1.11-6.727l-27.409-33.899c7.829-2.513,13.614-6.191,15.454-11.034
	c0.671-1.766,0.325-3.758-0.862-5.227L493.5,513l-44.672,55.249c-1.188,1.469-1.533,3.461-0.862,5.227
	c1.84,4.844,7.625,8.521,15.454,11.034l-27.409,33.899c-1.529,1.89-1.973,4.455-1.11,6.727c2.332,6.137,9.584,10.819,19.423,14.049
	l-31.912,39.467c-1.89,2.338-2.44,5.508-1.372,8.318C433.213,719.01,553.788,719.01,565.962,686.971z"/>
</svg>
