<?xml version="1.0" encoding="utf-8"?>
<!-- Generator: Adobe Illustrator 27.3.1, SVG Export Plug-In . SVG Version: 6.00 Build 0)  -->
<svg version="1.1" id="Layer_1" xmlns="http://www.w3.org/2000/svg" xmlns:xlink="http://www.w3.org/1999/xlink" x="0px" y="0px"
	 viewBox="0 0 612 792" enable-background="new 0 0 612 792" xml:space="preserve">
<path fill="none" stroke="#000000" stroke-miterlimit="10" d="M165.674,245.278c-2.629,0.115-5.262,0.071-7.892-0.131
	c-6.23-0.482-12.288-1.85-18.008-4.066c-1.416-0.549-2.815-1.153-4.161-1.794c-0.014-0.007-0.028-0.013-0.042-0.02
	c-0.049-0.023-0.097-0.046-0.145-0.07c-0.331,0.139-0.672,0.279-1.02,0.417c-0.452,0.181-0.94,0.366-1.488,0.566
	c-0.349,0.126-0.703,0.252-1.071,0.376c-0.219,0.075-0.449,0.151-0.683,0.227c-4.835,1.568-9.83,2.428-14.845,2.563
	c-10.854,0.286-21.54-2.861-30.901-9.102c-4.19-2.793-7.695-5.95-10.714-9.651c-4.945-6.058-8.827-13.863-12.215-24.562
	c-0.728-2.3-1.456-4.809-2.162-7.46c-1.473-5.526-2.711-11.136-3.678-16.675c-1.766-10.1-2.657-20.027-2.647-29.506
	c0.025-24.124,5.947-43.848,16.245-54.115C77,85.54,85.595,81.738,85.957,81.579c4.137-1.808,13.825-6.044,26.297-4.496
	c3.034,0.376,6.013,1.073,8.854,2.071c2.938,1.031,5.746,2.389,8.344,4.035c0.107,0.068,5.871,2.165,5.979,2.235
	c8.491-4.265,21.642-4.405,19.327-13.481c-2.61-10.233-11.216-16.291-7.988-20.684c5.223-7.106,25.648-15.147,31.267-2.984
	c3.453,7.474,9.513,15.424,4.001,25.656c-5.493,10.196,12.292,8.679,20.81,10.843c7.17-2.356,14.707-7.535,21.298-7.134
	c2.462,0.148,4.888,0.499,7.209,1.042c20.55,4.812,28.42,23.451,33.122,34.588c2.889,6.845,4.531,13.486,5.177,20.922
	c0.514,5.892,0.362,11.7,0.128,18.137l0,0l-0.003,0.073c-0.016,0.442-0.032,0.887-0.05,1.333
	c-0.555,14.939-1.128,30.383-10.752,48.211c-1.902,3.524-4.268,7.911-7.361,12.519c-4.307,6.419-8.792,11.415-13.711,15.272
	c-6.064,4.759-12.774,7.681-19.941,8.686c-6.345,0.891-12.99,0.292-19.752-1.78c-0.476-0.145-0.959-0.3-1.446-0.464
	c-0.025,0.014-0.049,0.029-0.074,0.043l-0.357,0.204c-0.008,0.005-0.017,0.009-0.025,0.014l-0.001,0.001
	c-0.014,0.008-0.028,0.017-0.042,0.025c-0.698,0.398-1.428,0.796-2.171,1.182c-3.142,1.626-6.474,3.03-9.906,4.173
	C178.097,243.85,171.895,245.007,165.674,245.278z M245.992,164.814l0.002,0L245.992,164.814z"/>
<path fill="none" stroke="#000000" stroke-miterlimit="10" d="M435.674,245.278c-2.629,0.115-5.262,0.071-7.892-0.131
	c-6.23-0.482-12.288-1.85-18.008-4.066c-1.416-0.549-2.815-1.153-4.161-1.794c-0.014-0.007-0.028-0.013-0.042-0.02
	c-0.049-0.023-0.097-0.046-0.145-0.07c-0.331,0.139-0.672,0.279-1.02,0.417c-0.452,0.181-0.94,0.366-1.488,0.566
	c-0.349,0.126-0.703,0.252-1.071,0.376c-0.219,0.075-0.449,0.151-0.683,0.227c-4.835,1.568-9.83,2.428-14.845,2.563
	c-10.854,0.286-21.54-2.861-30.901-9.102c-4.19-2.793-7.695-5.95-10.714-9.651c-4.945-6.058-8.827-13.863-12.215-24.562
	c-0.728-2.3-1.456-4.809-2.162-7.46c-1.473-5.526-2.711-11.136-3.678-16.675c-1.766-10.1-2.657-20.027-2.647-29.506
	c0.025-24.124,5.947-43.848,16.245-54.115c6.755-6.734,15.349-10.536,15.712-10.694c4.137-1.808,13.825-6.044,26.297-4.496
	c3.034,0.376,6.013,1.073,8.854,2.071c2.938,1.031,5.746,2.389,8.344,4.035c0.107,0.068,5.871,2.165,5.979,2.235
	c8.491-4.265,21.642-4.405,19.327-13.481c-2.61-10.233-11.216-16.291-7.988-20.684c5.223-7.106,25.648-15.147,31.267-2.984
	c3.453,7.474,9.513,15.424,4.001,25.656c-5.493,10.196,12.292,8.679,20.81,10.843c7.17-2.356,14.707-7.535,21.298-7.134
	c2.462,0.148,4.888,0.499,7.209,1.042c20.55,4.812,28.42,23.451,33.122,34.588c2.889,6.845,4.531,13.486,5.177,20.922
	c0.514,5.892,0.362,11.7,0.128,18.137l0,0l-0.003,0.073c-0.016,0.442-0.032,0.887-0.05,1.333
	c-0.555,14.939-1.128,30.383-10.752,48.211c-1.902,3.524-4.268,7.911-7.361,12.519c-4.307,6.419-8.792,11.415-13.711,15.272
	c-6.065,4.759-12.774,7.681-19.941,8.686c-6.345,0.891-12.99,0.292-19.752-1.78c-0.476-0.145-0.959-0.3-1.446-0.464
	c-0.025,0.014-0.049,0.029-0.074,0.043l-0.357,0.204c-0.008,0.005-0.017,0.009-0.025,0.014l-0.001,0.001
	c-0.014,0.008-0.028,0.017-0.042,0.025c-0.698,0.398-1.428,0.796-2.171,1.182c-3.142,1.626-6.474,3.03-9.906,4.173
	C448.097,243.85,441.895,245.007,435.674,245.278z M515.992,164.814l0.002,0L515.992,164.814z"/>
<path fill="none" stroke="#000000" stroke-miterlimit="10" d="M165.674,497.278c-2.629,0.115-5.262,0.071-7.892-0.131
	c-6.23-0.482-12.288-1.85-18.008-4.066c-1.416-0.549-2.815-1.153-4.161-1.794c-0.014-0.007-0.028-0.013-0.042-0.02
	c-0.049-0.023-0.097-0.046-0.145-0.07c-0.331,0.139-0.672,0.279-1.02,0.417c-0.452,0.181-0.94,0.366-1.488,0.566
	c-0.349,0.126-0.703,0.252-1.071,0.376c-0.219,0.075-0.449,0.151-0.683,0.227c-4.835,1.568-9.83,2.428-14.845,2.563
	c-10.854,0.286-21.54-2.861-30.901-9.102c-4.19-2.793-7.695-5.95-10.714-9.651c-4.945-6.058-8.827-13.863-12.215-24.562
	c-0.728-2.3-1.456-4.809-2.162-7.46c-1.473-5.526-2.711-11.136-3.678-16.675c-1.766-10.1-2.657-20.027-2.647-29.506
	c0.025-24.124,5.947-43.848,16.245-54.115c6.755-6.734,15.349-10.536,15.712-10.694c4.137-1.808,13.825-6.044,26.297-4.496
	c3.034,0.376,6.013,1.073,8.854,2.071c2.938,1.031,5.746,2.389,8.344,4.035c0.107,0.068,5.871,2.165,5.979,2.235
	c8.491-4.265,21.642-4.405,19.327-13.481c-2.61-10.233-11.216-16.291-7.988-20.684c5.223-7.106,25.648-15.147,31.267-2.984
	c3.453,7.474,9.513,15.424,4.001,25.656c-5.493,10.196,12.292,8.679,20.81,10.843c7.17-2.356,14.707-7.535,21.298-7.134
	c2.462,0.148,4.888,0.499,7.209,1.042c20.55,4.812,28.42,23.451,33.122,34.588c2.889,6.845,4.531,13.486,5.177,20.922
	c0.514,5.892,0.362,11.7,0.128,18.137l0,0l-0.003,0.073c-0.016,0.442-0.032,0.887-0.05,1.333
	c-0.555,14.939-1.128,30.383-10.752,48.211c-1.902,3.524-4.268,7.911-7.361,12.519c-4.307,6.419-8.792,11.415-13.711,15.272
	c-6.064,4.759-12.774,7.681-19.941,8.686c-6.345,0.891-12.99,0.292-19.752-1.78c-0.476-0.145-0.959-0.3-1.446-0.464
	c-0.025,0.014-0.049,0.029-0.074,0.043l-0.357,0.204c-0.008,0.005-0.017,0.009-0.025,0.014l-0.001,0.001
	c-0.014,0.008-0.028,0.017-0.042,0.025c-0.698,0.398-1.428,0.796-2.171,1.182c-3.142,1.626-6.474,3.03-9.906,4.174
	C178.097,495.85,171.895,497.007,165.674,497.278z M245.992,416.814l0.002,0L245.992,416.814z"/>
<path fill="none" stroke="#000000" stroke-miterlimit="10" d="M435.674,497.278c-2.629,0.115-5.262,0.071-7.892-0.131
	c-6.23-0.482-12.288-1.85-18.008-4.066c-1.416-0.549-2.815-1.153-4.161-1.794c-0.014-0.007-0.028-0.013-0.042-0.02
	c-0.049-0.023-0.097-0.046-0.145-0.07c-0.331,0.139-0.672,0.279-1.02,0.417c-0.452,0.181-0.94,0.366-1.488,0.566
	c-0.349,0.126-0.703,0.252-1.071,0.376c-0.219,0.075-0.449,0.151-0.683,0.227c-4.835,1.568-9.83,2.428-14.845,2.563
	c-10.854,0.286-21.54-2.861-30.901-9.102c-4.19-2.793-7.695-5.95-10.714-9.651c-4.945-6.058-8.827-13.863-12.215-24.562
	c-0.728-2.3-1.456-4.809-2.162-7.46c-1.473-5.526-2.711-11.136-3.678-16.675c-1.766-10.1-2.657-20.027-2.647-29.506
	c0.025-24.124,5.947-43.848,16.245-54.115c6.755-6.734,15.349-10.536,15.712-10.694c4.137-1.808,13.825-6.044,26.297-4.496
	c3.034,0.376,6.013,1.073,8.854,2.071c2.938,1.031,5.746,2.389,8.344,4.035c0.107,0.068,5.871,2.165,5.979,2.235
	c8.491-4.265,21.642-4.405,19.327-13.481c-2.61-10.233-11.216-16.291-7.988-20.684c5.223-7.106,25.648-15.147,31.267-2.984
	c3.453,7.474,9.513,15.424,4.001,25.656c-5.493,10.196,12.292,8.679,20.81,10.843c7.17-2.356,14.707-7.535,21.298-7.134
	c2.462,0.148,4.888,0.499,7.209,1.042c20.55,4.812,28.42,23.451,33.122,34.588c2.889,6.845,4.531,13.486,5.177,20.922
	c0.514,5.892,0.362,11.7,0.128,18.137l0,0l-0.003,0.073c-0.016,0.442-0.032,0.887-0.05,1.333
	c-0.555,14.939-1.128,30.383-10.752,48.211c-1.902,3.524-4.268,7.911-7.361,12.519c-4.307,6.419-8.792,11.415-13.711,15.272
	c-6.065,4.759-12.774,7.681-19.941,8.686c-6.345,0.891-12.99,0.292-19.752-1.78c-0.476-0.145-0.959-0.3-1.446-0.464
	c-0.025,0.014-0.049,0.029-0.074,0.043l-0.357,0.204c-0.008,0.005-0.017,0.009-0.025,0.014l-0.001,0.001
	c-0.014,0.008-0.028,0.017-0.042,0.025c-0.698,0.398-1.428,0.796-2.171,1.182c-3.142,1.626-6.474,3.03-9.906,4.174
	C448.097,495.85,441.895,497.007,435.674,497.278z M515.992,416.814l0.002,0L515.992,416.814z"/>
<path fill="none" stroke="#000000" stroke-miterlimit="10" d="M165.674,749.278c-2.629,0.115-5.262,0.071-7.892-0.131
	c-6.23-0.482-12.288-1.85-18.008-4.066c-1.416-0.549-2.815-1.153-4.161-1.794c-0.014-0.007-0.028-0.013-0.042-0.02
	c-0.049-0.023-0.097-0.046-0.145-0.07c-0.331,0.139-0.672,0.279-1.02,0.417c-0.452,0.181-0.94,0.366-1.488,0.565
	c-0.349,0.126-0.703,0.252-1.071,0.376c-0.219,0.075-0.449,0.151-0.683,0.227c-4.835,1.568-9.83,2.428-14.845,2.563
	c-10.854,0.286-21.54-2.861-30.901-9.102c-4.19-2.793-7.695-5.95-10.714-9.651c-4.945-6.058-8.827-13.863-12.215-24.562
	c-0.728-2.3-1.456-4.809-2.162-7.46c-1.473-5.526-2.711-11.136-3.678-16.675c-1.766-10.099-2.657-20.027-2.647-29.506
	c0.025-24.124,5.947-43.848,16.245-54.115c6.755-6.734,15.349-10.536,15.712-10.694c4.137-1.808,13.825-6.044,26.297-4.496
	c3.034,0.376,6.013,1.073,8.854,2.071c2.938,1.031,5.746,2.389,8.344,4.035c0.107,0.068,5.871,2.165,5.979,2.235
	c8.491-4.265,21.642-4.405,19.327-13.481c-2.61-10.233-11.216-16.291-7.988-20.684c5.223-7.106,25.648-15.147,31.267-2.984
	c3.453,7.474,9.513,15.424,4.001,25.656c-5.493,10.196,12.292,8.679,20.81,10.843c7.17-2.356,14.707-7.535,21.298-7.134
	c2.462,0.148,4.888,0.499,7.209,1.042c20.55,4.812,28.42,23.451,33.122,34.588c2.889,6.844,4.531,13.486,5.177,20.922
	c0.514,5.892,0.362,11.7,0.128,18.137l0,0l-0.003,0.073c-0.016,0.442-0.032,0.887-0.05,1.333
	c-0.555,14.939-1.128,30.383-10.752,48.211c-1.902,3.524-4.268,7.911-7.361,12.519c-4.307,6.419-8.792,11.415-13.711,15.272
	c-6.064,4.759-12.774,7.681-19.941,8.686c-6.345,0.891-12.99,0.292-19.752-1.78c-0.476-0.145-0.959-0.3-1.446-0.464
	c-0.025,0.014-0.049,0.029-0.074,0.043l-0.357,0.204c-0.008,0.005-0.017,0.009-0.025,0.014l-0.001,0.001
	c-0.014,0.008-0.028,0.017-0.042,0.025c-0.698,0.398-1.428,0.796-2.171,1.182c-3.142,1.626-6.474,3.03-9.906,4.173
	C178.097,747.85,171.895,749.007,165.674,749.278z M245.992,668.814l0.002,0L245.992,668.814z"/>
<path fill="none" stroke="#000000" stroke-miterlimit="10" d="M435.674,749.278c-2.629,0.115-5.262,0.071-7.892-0.131
	c-6.23-0.482-12.288-1.85-18.008-4.066c-1.416-0.549-2.815-1.153-4.161-1.794c-0.014-0.007-0.028-0.013-0.042-0.02
	c-0.049-0.023-0.097-0.046-0.145-0.07c-0.331,0.139-0.672,0.279-1.02,0.417c-0.452,0.181-0.94,0.366-1.488,0.565
	c-0.349,0.126-0.703,0.252-1.071,0.376c-0.219,0.075-0.449,0.151-0.683,0.227c-4.835,1.568-9.83,2.428-14.845,2.563
	c-10.854,0.286-21.54-2.861-30.901-9.102c-4.19-2.793-7.695-5.95-10.714-9.651c-4.945-6.058-8.827-13.863-12.215-24.562
	c-0.728-2.3-1.456-4.809-2.162-7.46c-1.473-5.526-2.711-11.136-3.678-16.675c-1.766-10.099-2.657-20.027-2.647-29.506
	c0.025-24.124,5.947-43.848,16.245-54.115c6.755-6.734,15.349-10.536,15.712-10.694c4.137-1.808,13.825-6.044,26.297-4.496
	c3.034,0.376,6.013,1.073,8.854,2.071c2.938,1.031,5.746,2.389,8.344,4.035c0.107,0.068,5.871,2.165,5.979,2.235
	c8.491-4.265,21.642-4.405,19.327-13.481c-2.61-10.233-11.216-16.291-7.988-20.684c5.223-7.106,25.648-15.147,31.267-2.984
	c3.453,7.474,9.513,15.424,4.001,25.656c-5.493,10.196,12.292,8.679,20.81,10.843c7.17-2.356,14.707-7.535,21.298-7.134
	c2.462,0.148,4.888,0.499,7.209,1.042c20.55,4.812,28.42,23.451,33.122,34.588c2.889,6.844,4.531,13.486,5.177,20.922
	c0.514,5.892,0.362,11.7,0.128,18.137l0,0l-0.003,0.073c-0.016,0.442-0.032,0.887-0.05,1.333
	c-0.555,14.939-1.128,30.383-10.752,48.211c-1.902,3.524-4.268,7.911-7.361,12.519c-4.307,6.419-8.792,11.415-13.711,15.272
	c-6.065,4.759-12.774,7.681-19.941,8.686c-6.345,0.891-12.99,0.292-19.752-1.78c-0.476-0.145-0.959-0.3-1.446-0.464
	c-0.025,0.014-0.049,0.029-0.074,0.043l-0.357,0.204c-0.008,0.005-0.017,0.009-0.025,0.014l-0.001,0.001
	c-0.014,0.008-0.028,0.017-0.042,0.025c-0.698,0.398-1.428,0.796-2.171,1.182c-3.142,1.626-6.474,3.03-9.906,4.173
	C448.097,747.85,441.895,749.007,435.674,749.278z M515.992,668.814l0.002,0L515.992,668.814z"/>
</svg>
