<?xml version="1.0" encoding="utf-8"?>
<!-- Generator: Adobe Illustrator 27.2.0, SVG Export Plug-In . SVG Version: 6.00 Build 0)  -->
<svg version="1.1" id="Layer_1" xmlns="http://www.w3.org/2000/svg" xmlns:xlink="http://www.w3.org/1999/xlink" x="0px" y="0px"
	 viewBox="0 0 612 792" enable-background="new 0 0 612 792" xml:space="preserve">
<circle fill="#FFFFFF" stroke="#414042" stroke-width="0.75" stroke-miterlimit="10" cx="72" cy="72" r="36"/>
<circle fill="#FFFFFF" stroke="#414042" stroke-width="0.75" stroke-miterlimit="10" cx="165.6" cy="72" r="36"/>
<circle fill="#FFFFFF" stroke="#414042" stroke-width="0.75" stroke-miterlimit="10" cx="259.2" cy="72" r="36"/>
<circle fill="#FFFFFF" stroke="#414042" stroke-width="0.75" stroke-miterlimit="10" cx="352.8" cy="72" r="36"/>
<circle fill="#FFFFFF" stroke="#414042" stroke-width="0.75" stroke-miterlimit="10" cx="446.4" cy="72" r="36"/>
<circle fill="#FFFFFF" stroke="#414042" stroke-width="0.75" stroke-miterlimit="10" cx="540" cy="72" r="36"/>
<circle fill="#FFFFFF" stroke="#414042" stroke-width="0.75" stroke-miterlimit="10" cx="72" cy="153" r="36"/>
<circle fill="#FFFFFF" stroke="#414042" stroke-width="0.75" stroke-miterlimit="10" cx="165.6" cy="153" r="36"/>
<circle fill="#FFFFFF" stroke="#414042" stroke-width="0.75" stroke-miterlimit="10" cx="259.2" cy="153" r="36"/>
<circle fill="#FFFFFF" stroke="#414042" stroke-width="0.75" stroke-miterlimit="10" cx="352.8" cy="153" r="36"/>
<circle fill="#FFFFFF" stroke="#414042" stroke-width="0.75" stroke-miterlimit="10" cx="446.4" cy="153" r="36"/>
<circle fill="#FFFFFF" stroke="#414042" stroke-width="0.75" stroke-miterlimit="10" cx="540" cy="153" r="36"/>
<circle fill="#FFFFFF" stroke="#414042" stroke-width="0.75" stroke-miterlimit="10" cx="72" cy="234" r="36"/>
<circle fill="#FFFFFF" stroke="#414042" stroke-width="0.75" stroke-miterlimit="10" cx="165.6" cy="234" r="36"/>
<circle fill="#FFFFFF" stroke="#414042" stroke-width="0.75" stroke-miterlimit="10" cx="259.2" cy="234" r="36"/>
<circle fill="#FFFFFF" stroke="#414042" stroke-width="0.75" stroke-miterlimit="10" cx="352.8" cy="234" r="36"/>
<circle fill="#FFFFFF" stroke="#414042" stroke-width="0.75" stroke-miterlimit="10" cx="446.4" cy="234" r="36"/>
<circle fill="#FFFFFF" stroke="#414042" stroke-width="0.75" stroke-miterlimit="10" cx="540" cy="234" r="36"/>
<circle fill="#FFFFFF" stroke="#414042" stroke-width="0.75" stroke-miterlimit="10" cx="72" cy="315" r="36"/>
<circle fill="#FFFFFF" stroke="#414042" stroke-width="0.75" stroke-miterlimit="10" cx="165.6" cy="315" r="36"/>
<circle fill="#FFFFFF" stroke="#414042" stroke-width="0.75" stroke-miterlimit="10" cx="259.2" cy="315" r="36"/>
<circle fill="#FFFFFF" stroke="#414042" stroke-width="0.75" stroke-miterlimit="10" cx="352.8" cy="315" r="36"/>
<circle fill="#FFFFFF" stroke="#414042" stroke-width="0.75" stroke-miterlimit="10" cx="446.4" cy="315" r="36"/>
<circle fill="#FFFFFF" stroke="#414042" stroke-width="0.75" stroke-miterlimit="10" cx="540" cy="315" r="36"/>
<circle fill="#FFFFFF" stroke="#414042" stroke-width="0.75" stroke-miterlimit="10" cx="72" cy="396" r="36"/>
<circle fill="#FFFFFF" stroke="#414042" stroke-width="0.75" stroke-miterlimit="10" cx="165.6" cy="396" r="36"/>
<circle fill="#FFFFFF" stroke="#414042" stroke-width="0.75" stroke-miterlimit="10" cx="259.2" cy="396" r="36"/>
<circle fill="#FFFFFF" stroke="#414042" stroke-width="0.75" stroke-miterlimit="10" cx="352.8" cy="396" r="36"/>
<circle fill="#FFFFFF" stroke="#414042" stroke-width="0.75" stroke-miterlimit="10" cx="446.4" cy="396" r="36"/>
<circle fill="#FFFFFF" stroke="#414042" stroke-width="0.75" stroke-miterlimit="10" cx="540" cy="396" r="36"/>
<circle fill="#FFFFFF" stroke="#414042" stroke-width="0.75" stroke-miterlimit="10" cx="72" cy="477" r="36"/>
<circle fill="#FFFFFF" stroke="#414042" stroke-width="0.75" stroke-miterlimit="10" cx="165.6" cy="477" r="36"/>
<circle fill="#FFFFFF" stroke="#414042" stroke-width="0.75" stroke-miterlimit="10" cx="259.2" cy="477" r="36"/>
<circle fill="#FFFFFF" stroke="#414042" stroke-width="0.75" stroke-miterlimit="10" cx="352.8" cy="477" r="36"/>
<circle fill="#FFFFFF" stroke="#414042" stroke-width="0.75" stroke-miterlimit="10" cx="446.4" cy="477" r="36"/>
<circle fill="#FFFFFF" stroke="#414042" stroke-width="0.75" stroke-miterlimit="10" cx="540" cy="477" r="36"/>
<circle fill="#FFFFFF" stroke="#414042" stroke-width="0.75" stroke-miterlimit="10" cx="72" cy="558" r="36"/>
<circle fill="#FFFFFF" stroke="#414042" stroke-width="0.75" stroke-miterlimit="10" cx="165.6" cy="558" r="36"/>
<circle fill="#FFFFFF" stroke="#414042" stroke-width="0.75" stroke-miterlimit="10" cx="259.2" cy="558" r="36"/>
<circle fill="#FFFFFF" stroke="#414042" stroke-width="0.75" stroke-miterlimit="10" cx="352.8" cy="558" r="36"/>
<circle fill="#FFFFFF" stroke="#414042" stroke-width="0.75" stroke-miterlimit="10" cx="446.4" cy="558" r="36"/>
<circle fill="#FFFFFF" stroke="#414042" stroke-width="0.75" stroke-miterlimit="10" cx="540" cy="558" r="36"/>
<circle fill="#FFFFFF" stroke="#414042" stroke-width="0.75" stroke-miterlimit="10" cx="72" cy="639" r="36"/>
<circle fill="#FFFFFF" stroke="#414042" stroke-width="0.75" stroke-miterlimit="10" cx="165.6" cy="639" r="36"/>
<circle fill="#FFFFFF" stroke="#414042" stroke-width="0.75" stroke-miterlimit="10" cx="259.2" cy="639" r="36"/>
<circle fill="#FFFFFF" stroke="#414042" stroke-width="0.75" stroke-miterlimit="10" cx="352.8" cy="639" r="36"/>
<circle fill="#FFFFFF" stroke="#414042" stroke-width="0.75" stroke-miterlimit="10" cx="446.4" cy="639" r="36"/>
<circle fill="#FFFFFF" stroke="#414042" stroke-width="0.75" stroke-miterlimit="10" cx="540" cy="639" r="36"/>
<circle fill="#FFFFFF" stroke="#414042" stroke-width="0.75" stroke-miterlimit="10" cx="72" cy="720" r="36"/>
<circle fill="#FFFFFF" stroke="#414042" stroke-width="0.75" stroke-miterlimit="10" cx="165.6" cy="720" r="36"/>
<circle fill="#FFFFFF" stroke="#414042" stroke-width="0.75" stroke-miterlimit="10" cx="259.2" cy="720" r="36"/>
<circle fill="#FFFFFF" stroke="#414042" stroke-width="0.75" stroke-miterlimit="10" cx="352.8" cy="720" r="36"/>
<circle fill="#FFFFFF" stroke="#414042" stroke-width="0.75" stroke-miterlimit="10" cx="446.4" cy="720" r="36"/>
<circle fill="#FFFFFF" stroke="#414042" stroke-width="0.75" stroke-miterlimit="10" cx="540" cy="720" r="36"/>
</svg>
