<?xml version="1.0" encoding="utf-8"?>
<!-- Generator: Adobe Illustrator 27.1.1, SVG Export Plug-In . SVG Version: 6.00 Build 0)  -->
<svg version="1.1" id="Layer_1" xmlns="http://www.w3.org/2000/svg" xmlns:xlink="http://www.w3.org/1999/xlink" x="0px" y="0px"
	 viewBox="0 0 612 792" enable-background="new 0 0 612 792" xml:space="preserve">
<circle fill="#949598" cx="89.64" cy="71.64" r="45"/>
<circle fill="#949598" cx="197.64" cy="71.64" r="45"/>
<circle fill="#949598" cx="305.64" cy="71.64" r="45"/>
<circle fill="#949598" cx="413.641" cy="71.64" r="45"/>
<circle fill="#949598" cx="521.641" cy="71.64" r="45"/>
<circle fill="#949598" cx="89.64" cy="179.64" r="45"/>
<circle fill="#949598" cx="197.64" cy="179.64" r="45"/>
<circle fill="#949598" cx="305.64" cy="179.64" r="45"/>
<circle fill="#949598" cx="413.641" cy="179.64" r="45"/>
<circle fill="#949598" cx="521.641" cy="179.64" r="45"/>
<circle fill="#949598" cx="89.64" cy="287.64" r="45"/>
<circle fill="#949598" cx="197.64" cy="287.64" r="45"/>
<circle fill="#949598" cx="305.64" cy="287.64" r="45"/>
<circle fill="#949598" cx="413.641" cy="287.64" r="45"/>
<circle fill="#949598" cx="521.641" cy="287.64" r="45"/>
<ellipse transform="matrix(0.1598 -0.9871 0.9871 0.1598 -315.2416 420.8859)" fill="#949598" cx="89.64" cy="395.64" rx="45" ry="45"/>
<ellipse transform="matrix(0.1597 -0.9872 0.9872 0.1597 -224.49 527.5453)" fill="#949598" cx="197.64" cy="395.64" rx="45" ry="45"/>
<ellipse transform="matrix(0.2289 -0.9735 0.9735 0.2289 -149.4504 602.6177)" fill="#949598" cx="305.64" cy="395.64" rx="45" ry="45"/>
<ellipse transform="matrix(0.1597 -0.9872 0.9872 0.1597 -42.9922 740.7724)" fill="#949598" cx="413.641" cy="395.64" rx="45" ry="45"/>
<ellipse transform="matrix(0.1597 -0.9872 0.9872 0.1597 47.7565 847.3857)" fill="#949598" cx="521.641" cy="395.64" rx="45" ry="45"/>
<circle fill="#949598" cx="89.64" cy="503.641" r="45"/>
<circle fill="#949598" cx="197.64" cy="503.641" r="45"/>
<circle fill="#949598" cx="305.64" cy="503.641" r="45"/>
<circle fill="#949598" cx="413.641" cy="503.641" r="45"/>
<circle fill="#949598" cx="521.641" cy="503.641" r="45"/>
<circle fill="#949598" cx="89.64" cy="611.641" r="45"/>
<circle fill="#949598" cx="197.64" cy="611.641" r="45"/>
<circle fill="#949598" cx="305.64" cy="611.641" r="45"/>
<circle fill="#949598" cx="413.641" cy="611.641" r="45"/>
<circle fill="#949598" cx="521.641" cy="611.641" r="45"/>
<circle fill="#949598" cx="89.64" cy="719.641" r="45"/>
<circle fill="#949598" cx="197.64" cy="719.641" r="45"/>
<circle fill="#949598" cx="305.64" cy="719.641" r="45"/>
<circle fill="#949598" cx="413.641" cy="719.641" r="45"/>
<circle fill="#949598" cx="521.641" cy="719.641" r="45"/>
</svg>
