<?xml version="1.0" encoding="utf-8"?>
<!-- Generator: Adobe Illustrator 27.1.1, SVG Export Plug-In . SVG Version: 6.00 Build 0)  -->
<svg version="1.1" id="Layer_1" xmlns="http://www.w3.org/2000/svg" xmlns:xlink="http://www.w3.org/1999/xlink" x="0px" y="0px"
	 viewBox="0 0 612 792" enable-background="new 0 0 612 792" xml:space="preserve">
<circle fill="#949598" cx="76.32" cy="134.64" r="54"/>
<circle fill="#949598" cx="190.8" cy="134.64" r="54"/>
<circle fill="#949598" cx="305.28" cy="134.64" r="54"/>
<path fill="#949598" d="M473.761,134.64c0,29.823-24.177,54-54.001,54c-29.823,0-54-24.177-54-54c0-29.823,24.177-54,54-54
	C449.584,80.64,473.761,104.817,473.761,134.64z"/>
<path fill="#949598" d="M588.241,134.64c0,29.823-24.177,54-54.001,54c-29.823,0-54-24.177-54-54c0-29.823,24.177-54,54-54
	C564.065,80.64,588.241,104.817,588.241,134.64z"/>
<circle fill="#949598" cx="76.32" cy="252" r="54"/>
<circle fill="#949598" cx="190.8" cy="252" r="54"/>
<circle fill="#949598" cx="305.28" cy="252" r="54"/>
<path fill="#949598" d="M473.761,252c0,29.823-24.177,54-54.001,54c-29.823,0-54-24.177-54-54s24.177-54,54-54
	C449.584,198,473.761,222.177,473.761,252z"/>
<path fill="#949598" d="M588.241,252c0,29.823-24.177,54-54.001,54c-29.823,0-54-24.177-54-54s24.177-54,54-54
	C564.065,198,588.241,222.177,588.241,252z"/>
<ellipse transform="matrix(0.1599 -0.9871 0.9871 0.1599 -300.4906 385.6534)" fill="#949598" cx="76.32" cy="369.36" rx="54" ry="54"/>
<ellipse transform="matrix(0.1596 -0.9872 0.9872 0.1596 -204.2832 498.7462)" fill="#949598" cx="190.8" cy="369.36" rx="54" ry="54"/>
<ellipse transform="matrix(0.2287 -0.9735 0.9735 0.2287 -124.1072 582.0789)" fill="#949598" cx="305.28" cy="369.36" rx="54" ry="54"/>
<path fill="#949598" d="M473.761,369.36c0,29.824-24.177,54.001-54.001,54.001c-29.823,0-54-24.177-54-54.001
	c0-29.823,24.177-54,54-54C449.584,315.36,473.761,339.537,473.761,369.36z"/>
<path fill="#949598" d="M588.241,369.36c0,29.824-24.177,54.001-54.001,54.001c-29.823,0-54-24.177-54-54.001
	c0-29.823,24.177-54,54-54C564.065,315.36,588.241,339.537,588.241,369.36z"/>
<path fill="#949598" d="M130.32,486.72c0,29.824-24.177,54.001-54,54.001c-29.823,0-54-24.177-54-54.001c0-29.823,24.177-54,54-54
	C106.143,432.72,130.32,456.897,130.32,486.72z"/>
<path fill="#949598" d="M244.8,486.72c0,29.824-24.177,54.001-54,54.001s-54-24.177-54-54.001c0-29.823,24.177-54,54-54
	S244.8,456.897,244.8,486.72z"/>
<path fill="#949598" d="M359.28,486.72c0,29.824-24.177,54.001-54.001,54.001c-29.823,0-54-24.177-54-54.001
	c0-29.823,24.177-54,54-54C335.103,432.72,359.28,456.897,359.28,486.72z"/>
<path fill="#949598" d="M473.761,486.72c0,29.824-24.177,54.001-54.001,54.001c-29.823,0-54-24.177-54-54.001
	c0-29.823,24.177-54,54-54C449.584,432.72,473.761,456.897,473.761,486.72z"/>
<path fill="#949598" d="M588.241,486.72c0,29.824-24.177,54.001-54.001,54.001c-29.823,0-54-24.177-54-54.001
	c0-29.823,24.177-54,54-54C564.065,432.72,588.241,456.897,588.241,486.72z"/>
<path fill="#949598" d="M130.32,604.08c0,29.824-24.177,54.001-54,54.001c-29.823,0-54-24.177-54-54.001c0-29.823,24.177-54,54-54
	C106.143,550.08,130.32,574.257,130.32,604.08z"/>
<path fill="#949598" d="M244.8,604.08c0,29.824-24.177,54.001-54,54.001s-54-24.177-54-54.001c0-29.823,24.177-54,54-54
	S244.8,574.257,244.8,604.08z"/>
<path fill="#949598" d="M359.28,604.08c0,29.824-24.177,54.001-54.001,54.001c-29.823,0-54-24.177-54-54.001
	c0-29.823,24.177-54,54-54C335.103,550.08,359.28,574.257,359.28,604.08z"/>
<path fill="#949598" d="M473.761,604.08c0,29.824-24.177,54.001-54.001,54.001c-29.823,0-54-24.177-54-54.001
	c0-29.823,24.177-54,54-54C449.584,550.08,473.761,574.257,473.761,604.08z"/>
<path fill="#949598" d="M588.241,604.08c0,29.824-24.177,54.001-54.001,54.001c-29.823,0-54-24.177-54-54.001
	c0-29.823,24.177-54,54-54C564.065,550.08,588.241,574.257,588.241,604.08z"/>
<path fill="#949598" d="M130.32,721.44c0,29.824-24.177,54.001-54,54.001c-29.823,0-54-24.177-54-54.001c0-29.823,24.177-54,54-54
	C106.143,667.44,130.32,691.617,130.32,721.44z"/>
<path fill="#949598" d="M244.8,721.44c0,29.824-24.177,54.001-54,54.001s-54-24.177-54-54.001c0-29.823,24.177-54,54-54
	S244.8,691.617,244.8,721.44z"/>
<path fill="#949598" d="M359.28,721.44c0,29.824-24.177,54.001-54.001,54.001c-29.823,0-54-24.177-54-54.001
	c0-29.823,24.177-54,54-54C335.103,667.44,359.28,691.617,359.28,721.44z"/>
<path fill="#949598" d="M473.761,721.44c0,29.824-24.177,54.001-54.001,54.001c-29.823,0-54-24.177-54-54.001
	c0-29.823,24.177-54,54-54C449.584,667.44,473.761,691.617,473.761,721.44z"/>
<path fill="#949598" d="M588.241,721.44c0,29.824-24.177,54.001-54.001,54.001c-29.823,0-54-24.177-54-54.001
	c0-29.823,24.177-54,54-54C564.065,667.44,588.241,691.617,588.241,721.44z"/>
</svg>
