<?xml version="1.0" encoding="utf-8"?>
<!-- Generator: Adobe Illustrator 27.2.0, SVG Export Plug-In . SVG Version: 6.00 Build 0)  -->
<svg version="1.1" id="Layer_1" xmlns="http://www.w3.org/2000/svg" xmlns:xlink="http://www.w3.org/1999/xlink" x="0px" y="0px"
	 viewBox="0 0 612 792" enable-background="new 0 0 612 792" xml:space="preserve">
<path fill="#FFFFFF" stroke="#000000" stroke-width="0.75" stroke-miterlimit="10" d="M153.324,234.054
	c45.422-36.475,76.222-65.339,92.402-86.549c16.238-21.165,24.328-41.473,24.328-60.927c0-15.22-5.093-27.468-15.281-36.7
	c-10.186-9.231-23.549-13.824-40.028-13.824c-10.786,0-22.773,4.428-32.839,10.011c-10.067,5.583-18.515,21.501-28.582,33.029
	c-10.067-11.528-18.575-27.446-28.761-33.029c-10.187-5.583-22.294-10.011-33.08-10.011c-16.599,0-30.021,4.593-40.149,13.824
	c-10.187,9.232-15.28,21.48-15.28,36.7c0,19.363,8.089,39.583,24.269,60.747C76.562,168.489,107.542,197.399,153.324,234.054z"/>
<path fill="#FFFFFF" stroke="#000000" stroke-width="0.75" stroke-miterlimit="10" d="M153.324,496.854
	c45.422-36.475,76.222-65.339,92.402-86.549c16.238-21.165,24.328-41.473,24.328-60.927c0-15.22-5.093-27.468-15.281-36.7
	c-10.186-9.231-23.549-13.824-40.028-13.824c-10.786,0-22.773,4.428-32.839,10.011c-10.067,5.583-18.515,21.501-28.582,33.029
	c-10.067-11.528-18.575-27.446-28.761-33.029c-10.187-5.583-22.294-10.011-33.08-10.011c-16.599,0-30.021,4.593-40.149,13.824
	c-10.187,9.232-15.28,21.48-15.28,36.7c0,19.363,8.089,39.583,24.269,60.747C76.562,431.289,107.542,460.199,153.324,496.854z"/>
<path fill="#FFFFFF" stroke="#000000" stroke-width="0.75" stroke-miterlimit="10" d="M459.324,234.054
	c45.422-36.475,76.222-65.339,92.4-86.549c16.239-21.165,24.329-41.473,24.329-60.927c0-15.22-5.093-27.468-15.28-36.7
	c-10.186-9.231-23.55-13.824-40.028-13.824c-10.786,0-22.773,4.428-32.839,10.011c-10.067,5.583-18.516,21.501-28.582,33.029
	c-10.067-11.528-18.575-27.446-28.762-33.029s-22.294-10.011-33.079-10.011c-16.6,0-30.022,4.593-40.149,13.824
	c-10.187,9.232-15.28,21.48-15.28,36.7c0,19.363,8.089,39.583,24.27,60.747C382.561,168.489,413.542,197.399,459.324,234.054z"/>
<path fill="#FFFFFF" stroke="#000000" stroke-width="0.75" stroke-miterlimit="10" d="M459.324,496.854
	c45.422-36.475,76.222-65.339,92.4-86.549c16.239-21.165,24.329-41.473,24.329-60.927c0-15.22-5.093-27.468-15.28-36.7
	c-10.186-9.231-23.55-13.824-40.028-13.824c-10.786,0-22.773,4.428-32.839,10.011c-10.067,5.583-18.516,21.501-28.582,33.029
	c-10.067-11.528-18.575-27.446-28.762-33.029c-10.186-5.583-22.294-10.011-33.079-10.011c-16.6,0-30.022,4.593-40.149,13.824
	c-10.187,9.232-15.28,21.48-15.28,36.7c0,19.363,8.089,39.583,24.27,60.747C382.561,431.289,413.542,460.199,459.324,496.854z"/>
<path fill="#FFFFFF" stroke="#000000" stroke-width="0.75" stroke-miterlimit="10" d="M153.324,756.054
	c45.422-36.475,76.222-65.339,92.402-86.549c16.238-21.165,24.328-41.473,24.328-60.927c0-15.22-5.093-27.468-15.281-36.7
	c-10.186-9.23-23.549-13.824-40.028-13.824c-10.786,0-22.773,4.429-32.839,10.012c-10.067,5.583-18.515,21.501-28.582,33.028
	c-10.067-11.527-18.575-27.445-28.761-33.028c-10.187-5.583-22.294-10.012-33.08-10.012c-16.599,0-30.021,4.594-40.149,13.824
	c-10.187,9.232-15.28,21.48-15.28,36.7c0,19.363,8.089,39.583,24.269,60.747C76.562,690.489,107.542,719.399,153.324,756.054z"/>
<path fill="#FFFFFF" stroke="#000000" stroke-width="0.75" stroke-miterlimit="10" d="M459.324,756.054
	c45.422-36.475,76.222-65.339,92.4-86.549c16.239-21.165,24.329-41.473,24.329-60.927c0-15.22-5.093-27.468-15.28-36.7
	c-10.186-9.23-23.55-13.824-40.028-13.824c-10.786,0-22.773,4.429-32.839,10.012c-10.067,5.583-18.516,21.501-28.582,33.028
	c-10.067-11.527-18.575-27.445-28.762-33.028c-10.186-5.583-22.294-10.012-33.079-10.012c-16.6,0-30.022,4.594-40.149,13.824
	c-10.187,9.232-15.28,21.48-15.28,36.7c0,19.363,8.089,39.583,24.27,60.747C382.561,690.489,413.542,719.399,459.324,756.054z"/>
</svg>
