<?xml version="1.0" encoding="utf-8"?>
<!-- Generator: Adobe Illustrator 15.1.0, SVG Export Plug-In . SVG Version: 6.00 Build 0)  -->
<!DOCTYPE svg PUBLIC "-//W3C//DTD SVG 1.1//EN" "http://www.w3.org/Graphics/SVG/1.1/DTD/svg11.dtd">
<svg version="1.1" id="Layer_1" xmlns="http://www.w3.org/2000/svg" xmlns:xlink="http://www.w3.org/1999/xlink" x="0px" y="0px"
	 width="612px" height="792px" viewBox="0 0 612 792" enable-background="new 0 0 612 792" xml:space="preserve">
<circle fill="#D1D3D4" cx="89.64" cy="71.64" r="45"/>
<circle fill="#D1D3D4" cx="197.64" cy="71.64" r="45"/>
<circle fill="#D1D3D4" cx="305.64" cy="71.64" r="45"/>
<circle fill="#D1D3D4" cx="413.641" cy="71.64" r="45"/>
<circle fill="#D1D3D4" cx="521.641" cy="71.64" r="45"/>
<circle fill="#D1D3D4" cx="89.64" cy="179.64" r="45"/>
<circle fill="#D1D3D4" cx="197.64" cy="179.64" r="45"/>
<circle fill="#D1D3D4" cx="305.64" cy="179.64" r="45"/>
<circle fill="#D1D3D4" cx="413.641" cy="179.64" r="45"/>
<circle fill="#D1D3D4" cx="521.641" cy="179.64" r="45"/>
<circle fill="#D1D3D4" cx="89.64" cy="287.64" r="45"/>
<circle fill="#D1D3D4" cx="197.64" cy="287.64" r="45"/>
<circle fill="#D1D3D4" cx="305.64" cy="287.64" r="45"/>
<circle fill="#D1D3D4" cx="413.641" cy="287.64" r="45"/>
<circle fill="#D1D3D4" cx="521.641" cy="287.64" r="45"/>
<circle fill="#D1D3D4" cx="89.64" cy="395.64" r="45"/>
<circle fill="#D1D3D4" cx="197.64" cy="395.64" r="45"/>
<circle fill="#D1D3D4" cx="305.64" cy="395.64" r="45"/>
<circle fill="#D1D3D4" cx="413.641" cy="395.64" r="45"/>
<circle fill="#D1D3D4" cx="521.641" cy="395.64" r="45"/>
<circle fill="#D1D3D4" cx="89.64" cy="503.641" r="45"/>
<circle fill="#D1D3D4" cx="197.64" cy="503.641" r="45"/>
<circle fill="#D1D3D4" cx="305.64" cy="503.641" r="45"/>
<circle fill="#D1D3D4" cx="413.641" cy="503.641" r="45"/>
<circle fill="#D1D3D4" cx="521.641" cy="503.641" r="45"/>
<circle fill="#D1D3D4" cx="89.64" cy="611.641" r="45"/>
<circle fill="#D1D3D4" cx="197.64" cy="611.641" r="45"/>
<circle fill="#D1D3D4" cx="305.64" cy="611.641" r="45"/>
<circle fill="#D1D3D4" cx="413.641" cy="611.641" r="45"/>
<circle fill="#D1D3D4" cx="521.641" cy="611.641" r="45"/>
<circle fill="#D1D3D4" cx="89.64" cy="719.641" r="45"/>
<circle fill="#D1D3D4" cx="197.64" cy="719.641" r="45"/>
<circle fill="#D1D3D4" cx="305.64" cy="719.641" r="45"/>
<circle fill="#D1D3D4" cx="413.641" cy="719.641" r="45"/>
<circle fill="#D1D3D4" cx="521.641" cy="719.641" r="45"/>
</svg>
