<?xml version="1.0" encoding="utf-8"?>
<!-- Generator: Adobe Illustrator 15.1.0, SVG Export Plug-In . SVG Version: 6.00 Build 0)  -->
<!DOCTYPE svg PUBLIC "-//W3C//DTD SVG 1.1//EN" "http://www.w3.org/Graphics/SVG/1.1/DTD/svg11.dtd">
<svg version="1.1" id="Layer_1" xmlns="http://www.w3.org/2000/svg" xmlns:xlink="http://www.w3.org/1999/xlink" x="0px" y="0px"
	 width="612px" height="792px" viewBox="0 0 612 792" enable-background="new 0 0 612 792" xml:space="preserve">
<circle fill="#939598" cx="76.32" cy="134.64" r="54"/>
<circle fill="#939598" cx="190.8" cy="134.64" r="54"/>
<circle fill="#939598" cx="305.28" cy="134.64" r="54"/>
<circle fill="#939598" cx="419.76" cy="134.64" r="54"/>
<circle fill="#939598" cx="534.241" cy="134.64" r="54"/>
<circle fill="#939598" cx="76.32" cy="252" r="54"/>
<circle fill="#939598" cx="190.8" cy="252" r="54"/>
<circle fill="#939598" cx="305.28" cy="252" r="54"/>
<circle fill="#939598" cx="419.76" cy="252" r="54"/>
<circle fill="#939598" cx="534.241" cy="252" r="54"/>
<circle fill="#939598" cx="76.32" cy="369.36" r="54"/>
<circle fill="#939598" cx="190.8" cy="369.36" r="54"/>
<circle fill="#939598" cx="305.28" cy="369.36" r="54"/>
<circle fill="#939598" cx="419.76" cy="369.36" r="54"/>
<circle fill="#939598" cx="534.241" cy="369.36" r="54"/>
<circle fill="#939598" cx="76.32" cy="486.72" r="54"/>
<circle fill="#939598" cx="190.8" cy="486.72" r="54"/>
<circle fill="#939598" cx="305.28" cy="486.72" r="54"/>
<circle fill="#939598" cx="419.76" cy="486.72" r="54"/>
<circle fill="#939598" cx="534.241" cy="486.72" r="54"/>
<circle fill="#939598" cx="76.32" cy="604.08" r="54"/>
<circle fill="#939598" cx="190.8" cy="604.08" r="54"/>
<circle fill="#939598" cx="305.28" cy="604.08" r="54"/>
<circle fill="#939598" cx="419.76" cy="604.08" r="54"/>
<circle fill="#939598" cx="534.241" cy="604.08" r="54"/>
<circle fill="#939598" cx="76.32" cy="721.44" r="54"/>
<circle fill="#939598" cx="190.8" cy="721.44" r="54"/>
<circle fill="#939598" cx="305.28" cy="721.44" r="54"/>
<circle fill="#939598" cx="419.76" cy="721.44" r="54"/>
<circle fill="#939598" cx="534.241" cy="721.44" r="54"/>
</svg>
