<?xml version="1.0" encoding="utf-8"?>
<!-- Generator: Adobe Illustrator 27.1.1, SVG Export Plug-In . SVG Version: 6.00 Build 0)  -->
<svg version="1.1" id="Layer_1" xmlns="http://www.w3.org/2000/svg" xmlns:xlink="http://www.w3.org/1999/xlink" x="0px" y="0px"
	 viewBox="0 0 612 792" enable-background="new 0 0 612 792" xml:space="preserve">
<ellipse transform="matrix(0.172 -0.9851 0.9851 0.172 -28.358 236.2626)" fill="#949598" cx="126.36" cy="135" rx="76.68" ry="76.68"/>
<ellipse transform="matrix(0.1282 -0.9918 0.9918 0.1282 133.2039 421.5283)" fill="#949598" cx="306.361" cy="135" rx="76.68" ry="76.68"/>
<ellipse transform="matrix(0.0728 -0.9973 0.9973 0.0728 316.3092 610.2408)" fill="#949598" cx="486.36" cy="135" rx="76.68" ry="76.681"/>
<ellipse transform="matrix(0.172 -0.9851 0.9851 0.172 -199.2931 379.9432)" fill="#949598" cx="126.36" cy="308.52" rx="76.68" ry="76.68"/>
<ellipse transform="matrix(0.1282 -0.9918 0.9918 0.1282 -38.8846 572.8059)" fill="#949598" cx="306.361" cy="308.52" rx="76.68" ry="76.68"/>
<ellipse transform="matrix(0.0728 -0.9973 0.9973 0.0728 143.2497 771.1277)" fill="#949598" cx="486.36" cy="308.52" rx="76.68" ry="76.681"/>
<ellipse transform="matrix(0.361 -0.9326 0.9326 0.361 -368.7925 425.8886)" fill="#949598" cx="126.36" cy="482.04" rx="76.68" ry="76.68"/>
<ellipse transform="matrix(0.2667 -0.9638 0.9638 0.2667 -239.9191 648.7663)" fill="#949598" cx="306.361" cy="482.04" rx="76.68" ry="76.68"/>
<ellipse transform="matrix(0.1449 -0.9894 0.9894 0.1449 -61.0742 893.4084)" fill="#949598" cx="486.36" cy="482.04" rx="76.68" ry="76.681"/>
<ellipse transform="matrix(0.4098 -0.9122 0.9122 0.4098 -523.4143 502.204)" fill="#949598" cx="126.36" cy="655.559" rx="76.68" ry="76.68"/>
<ellipse transform="matrix(0.3049 -0.9524 0.9524 0.3049 -411.3901 747.4772)" fill="#949598" cx="306.361" cy="655.559" rx="76.68" ry="76.68"/>
<ellipse transform="matrix(0.1649 -0.9863 0.9863 0.1649 -240.4366 1027.1378)" fill="#949598" cx="486.36" cy="655.559" rx="76.68" ry="76.681"/>
</svg>
